<?xml version="1.0" ?>
<!-- Uploaded to: SVG Repo, www.svgrepo.com, Generator: SVG Repo Mixer Tools -->
<svg width="800px" height="800px" viewBox="0 0 24 24" xmlns="http://www.w3.org/2000/svg">
<defs>
<style>.cls-1,.cls-4{fill:#96ccee;}.cls-2,.cls-6{fill:#f94060;}.cls-3,.cls-5{fill:#ffeabb;}.cls-4,.cls-5,.cls-6{fill-rule:evenodd;}</style>
</defs>
<g data-name="Exchange rate" id="Exchange_rate">
<path class="cls-1" d="M4.46,14.31a1,1,0,0,0-.76.34l-1.6,1.8a1,1,0,0,0,1.35,1.46v2.68a1,1,0,0,0,2,0V17.91a1,1,0,0,0,1.26-.05,1,1,0,0,0,.08-1.41L5.2,14.65a1,1,0,0,0-.74-.34"/>
<path class="cls-2" d="M12.14,9.25a1,1,0,0,0-.76.34l-1.6,1.8a1,1,0,0,0,.08,1.41,1,1,0,0,0,1.26,0v7.74a1,1,0,0,0,2,0V12.86a1,1,0,0,0,1.35-1.47l-1.6-1.8a1,1,0,0,0-.73-.34"/>
<path class="cls-3" d="M19.81,11.78a1,1,0,0,0-.76.34l-1.6,1.8a1,1,0,0,0,.09,1.41,1,1,0,0,0,1.26.05v5.21a1,1,0,0,0,2,0V15.38a1,1,0,0,0,1.26-.05,1,1,0,0,0,.09-1.41l-1.6-1.8a1,1,0,0,0-.74-.34"/>
<path class="cls-4" d="M2.71,10A1.84,1.84,0,0,1,5.84,8.82a.5.5,0,0,1,0,.71.5.5,0,0,1-.7,0,.84.84,0,0,0-.6-.25.83.83,0,0,0-.82.69h1a.51.51,0,0,1,.5.5.5.5,0,0,1-.5.5h-1a.83.83,0,0,0,.82.7.88.88,0,0,0,.6-.25.5.5,0,0,1,.7,0,.5.5,0,0,1,0,.71A1.83,1.83,0,0,1,2.71,11H2.52a.5.5,0,0,1-.5-.5.5.5,0,0,1,.5-.5Z"/>
<path class="cls-5" d="M19.3,8.34l-1-1.19a.49.49,0,0,1,.07-.7.51.51,0,0,1,.71.07l.68.85.68-.85a.51.51,0,0,1,.71-.07.49.49,0,0,1,.07.7l-1,1.19v.18h.15A.5.5,0,0,1,21,9a.5.5,0,0,1-.5.5H20.3v.7a.5.5,0,1,1-1,0v-.7h-.15a.5.5,0,0,1-.5-.5.5.5,0,0,1,.5-.5h.15Z"/>
<path class="cls-6" d="M11.5,2.61v-.2a.5.5,0,0,1,.5-.5.5.5,0,0,1,.5.5v.2a1.31,1.31,0,0,1,.48.32,1.67,1.67,0,0,1,.31.44A.51.51,0,0,1,13,4a.49.49,0,0,1-.65-.26.38.38,0,0,0-.09-.13A.4.4,0,0,0,12,3.52a.4.4,0,0,0,0,.8A1.4,1.4,0,0,1,12.5,7v.21a.51.51,0,0,1-.5.5.5.5,0,0,1-.5-.5V7a1.35,1.35,0,0,1-.79-.76.5.5,0,1,1,.92-.39.35.35,0,0,0,.08.13A.4.4,0,1,0,12,5.32a1.4,1.4,0,0,1-.5-2.71Z"/>
</g>
</svg>